<?xml version="1.0" encoding="utf-8"?>
<svg version="1.1" xmlns:xlink="http://www.w3.org/1999/xlink" width="12px" height="12px" xmlns="http://www.w3.org/2000/svg">
  <g transform="matrix(1 0 0 1 -773 -346 )">
    <path d="M 11.8797595190381 1.23711340206186  C 11.9599198396794 1.37457044673539  12 1.53264604810996  12 1.71134020618557  C 12 1.89003436426117  11.9599198396794 2.04810996563574  11.8797595190381 2.18556701030928  L 6.27655310621242 11.7938144329897  C 6.19639278557114 11.9312714776632  6.10420841683367 12  6 12  C 5.89579158316633 12  5.80360721442886 11.9312714776632  5.72344689378757 11.7938144329897  L 0.120240480961924 2.18556701030928  C 0.0400801603206414 2.04810996563574  0 1.89003436426117  0 1.71134020618557  C 0 1.53264604810996  0.0400801603206414 1.37457044673539  0.120240480961924 1.23711340206186  L 0.721442885771543 0.20618556701031  C 0.801603206412826 0.0687285223367682  0.893787575150301 0  0.997995991983968 0  C 1.10220440881764 0  1.19438877755511 0.0687285223367682  1.27454909819639 0.20618556701031  L 6 8.30927835051546  L 10.7254509018036 0.20618556701031  C 10.8056112224449 0.0687285223367682  10.8977955911824 0  11.002004008016 0  C 11.1062124248497 0  11.1983967935872 0.0687285223367682  11.2785571142285 0.20618556701031  L 11.8797595190381 1.23711340206186  Z " fill-rule="nonzero" fill="#555555" stroke="none" transform="matrix(1 0 0 1 773 346 )" />
  </g>
</svg>